<svg width="228" height="147" viewBox="0 0 228 147" fill="none" xmlns="http://www.w3.org/2000/svg">
<path d="M13.872 86.1883C11.536 86.1883 9.45601 85.7866 7.63201 84.9834C5.80801 84.1799 4.36801 83.0875 3.31201 81.706C2.25601 80.2921 1.66401 78.7178 1.53601 76.9827H9.64801C9.74401 77.9144 10.176 78.6696 10.944 79.248C11.712 79.8263 12.656 80.1155 13.776 80.1155C14.8 80.1155 15.584 79.9227 16.128 79.5371C16.704 79.1193 16.992 78.5891 16.992 77.9466C16.992 77.1755 16.592 76.613 15.792 76.2598C14.992 75.8742 13.696 75.4563 11.904 75.0066C9.98401 74.5567 8.384 74.0909 7.10401 73.6089C5.82402 73.0947 4.72002 72.3076 3.79201 71.2473C2.864 70.1547 2.40001 68.6929 2.40001 66.8614C2.40001 65.3191 2.816 63.9214 3.64801 62.6683C4.51201 61.3829 5.76001 60.3707 7.39201 59.6319C9.056 58.8928 11.024 58.5234 13.296 58.5234C16.656 58.5234 19.296 59.3586 21.216 61.0296C23.168 62.7003 24.288 64.9174 24.576 67.6807H16.992C16.864 66.7489 16.448 66.0098 15.744 65.4637C15.072 64.9174 14.176 64.6443 13.056 64.6443C12.096 64.6443 11.36 64.8371 10.848 65.2227C10.336 65.576 10.08 66.0741 10.08 66.7168C10.08 67.488 10.48 68.0663 11.28 68.4519C12.112 68.8375 13.392 69.223 15.12 69.6086C17.104 70.1226 18.72 70.6366 19.968 71.1509C21.216 71.6329 22.304 72.4361 23.232 73.5607C24.192 74.6531 24.6881 76.1311 24.72 77.9948C24.72 79.5692 24.2719 80.983 23.376 82.2361C22.512 83.457 21.248 84.4209 19.584 85.128C17.952 85.8348 16.048 86.1883 13.872 86.1883ZM37.9495 62.7165C38.7497 61.4634 39.8537 60.4512 41.2615 59.6801C42.6696 58.9089 44.3177 58.5234 46.2055 58.5234C48.4135 58.5234 50.4137 59.0856 52.2055 60.2103C53.9976 61.3347 55.4057 62.9413 56.4295 65.0299C57.4855 67.1183 58.0135 69.5443 58.0135 72.3076C58.0135 75.0707 57.4855 77.5129 56.4295 79.6335C55.4057 81.7219 53.9976 83.3447 52.2055 84.5014C50.4137 85.6258 48.4135 86.1883 46.2055 86.1883C44.3496 86.1883 42.7015 85.8027 41.2615 85.0316C39.8537 84.2604 38.7497 83.2642 37.9495 82.0434V98.623H29.7415V58.9089H37.9495V62.7165ZM49.6615 72.3076C49.6615 70.2511 49.0855 68.6447 47.9335 67.488C46.8137 66.2989 45.4217 65.7047 43.7575 65.7047C42.1255 65.7047 40.7335 66.2989 39.5815 67.488C38.4617 68.6767 37.9015 70.2993 37.9015 72.3558C37.9015 74.4121 38.4617 76.0347 39.5815 77.2237C40.7335 78.4125 42.1255 79.007 43.7575 79.007C45.3895 79.007 46.7815 78.4125 47.9335 77.2237C49.0855 76.0026 49.6615 74.3639 49.6615 72.3076ZM74.5119 86.1883C71.8877 86.1883 69.5199 85.6258 67.4079 84.5014C65.3278 83.3767 63.6797 81.7701 62.4639 79.6817C61.2797 77.5931 60.6879 75.1512 60.6879 72.3558C60.6879 69.5925 61.2958 67.1665 62.5119 65.0781C63.7277 62.9575 65.3919 61.3347 67.5039 60.2103C69.6159 59.0856 71.9837 58.5234 74.6079 58.5234C77.2318 58.5234 79.5999 59.0856 81.7119 60.2103C83.8239 61.3347 85.4878 62.9575 86.7039 65.0781C87.9197 67.1665 88.5279 69.5925 88.5279 72.3558C88.5279 75.1189 87.9039 77.5611 86.6559 79.6817C85.4398 81.7701 83.7598 83.3767 81.6159 84.5014C79.5039 85.6258 77.1358 86.1883 74.5119 86.1883ZM74.5119 79.0552C76.0798 79.0552 77.4077 78.4768 78.4959 77.3201C79.6157 76.1634 80.1759 74.5085 80.1759 72.3558C80.1759 70.2029 79.6318 68.5483 78.5439 67.3916C77.4879 66.2348 76.1758 65.6565 74.6079 65.6565C73.0078 65.6565 71.6799 66.2348 70.6239 67.3916C69.5679 68.516 69.0399 70.1708 69.0399 72.3558C69.0399 74.5085 69.5518 76.1634 70.5759 77.3201C71.6319 78.4768 72.9437 79.0552 74.5119 79.0552ZM107.81 78.8142V85.8027H103.634C100.658 85.8027 98.3383 85.0798 96.6742 83.6339C95.0103 82.1557 94.1782 79.762 94.1782 76.4525V65.7529H90.9142V58.9089H94.1782V52.3542H102.386V58.9089H107.762V65.7529H102.386V76.5489C102.386 77.3521 102.578 77.9305 102.962 78.284C103.346 78.6373 103.986 78.8142 104.882 78.8142H107.81Z" fill="black"/>
<path d="M69.1103 86.0919V107.491H64.1855V86.0919H69.1103ZM71.7002 99.3942C71.7002 97.7362 72.0074 96.2806 72.6218 95.0275C73.2554 93.7744 74.1098 92.8105 75.185 92.1357C76.2602 91.461 77.4602 91.1236 78.785 91.1236C79.9178 91.1236 80.9066 91.3549 81.7514 91.8176C82.6154 92.2803 83.2778 92.8876 83.7386 93.6395V91.3549H88.6634V107.491H83.7386V105.207C83.2586 105.959 82.5866 106.566 81.7226 107.029C80.8778 107.491 79.889 107.723 78.7562 107.723C77.4506 107.723 76.2602 107.385 75.185 106.71C74.1098 106.016 73.2554 105.043 72.6218 103.79C72.0074 102.517 71.7002 101.052 71.7002 99.3942ZM83.7386 99.4231C83.7386 98.1892 83.393 97.2157 82.7018 96.5023C82.0298 95.789 81.2042 95.4324 80.225 95.4324C79.2458 95.4324 78.4106 95.789 77.7194 96.5023C77.0474 97.1964 76.7114 98.1603 76.7114 99.3942C76.7114 100.628 77.0474 101.611 77.7194 102.344C78.4106 103.057 79.2458 103.414 80.225 103.414C81.2042 103.414 82.0298 103.057 82.7018 102.344C83.393 101.63 83.7386 100.657 83.7386 99.4231ZM97.151 93.6395C97.6118 92.8876 98.2742 92.2803 99.1382 91.8176C100.002 91.3549 100.991 91.1236 102.105 91.1236C103.429 91.1236 104.629 91.461 105.705 92.1357C106.78 92.8105 107.625 93.7744 108.239 95.0275C108.873 96.2806 109.189 97.7362 109.189 99.3942C109.189 101.052 108.873 102.517 108.239 103.79C107.625 105.043 106.78 106.016 105.705 106.71C104.629 107.385 103.429 107.723 102.105 107.723C100.972 107.723 99.983 107.501 99.1382 107.057C98.2934 106.595 97.631 105.987 97.151 105.236V107.491H92.2262V86.0919H97.151V93.6395ZM104.178 99.3942C104.178 98.1603 103.833 97.1964 103.141 96.5023C102.469 95.789 101.634 95.4324 100.636 95.4324C99.6566 95.4324 98.8214 95.789 98.1302 96.5023C97.4582 97.2157 97.1222 98.1892 97.1222 99.4231C97.1222 100.657 97.4582 101.63 98.1302 102.344C98.8214 103.057 99.6566 103.414 100.636 103.414C101.615 103.414 102.45 103.057 103.141 102.344C103.833 101.611 104.178 100.628 104.178 99.3942Z" fill="#3A3A3A"/>
<path d="M179.041 49.4501C178.211 49.0318 177.201 49.3687 176.784 50.2025C176.367 51.036 176.703 52.0513 177.533 52.4691C180.503 53.9647 183.22 55.9236 185.608 58.292C198.066 70.6444 198.192 90.8706 185.89 103.379C173.588 115.887 153.444 116.015 140.987 103.662C132.009 94.7596 129.132 81.3621 133.657 69.5296C133.896 68.9033 133.744 68.1941 133.268 67.7224L125.001 59.5249L134.489 49.8781C135.142 49.2144 135.135 48.1454 134.474 47.4899C133.813 46.8347 132.748 46.8412 132.095 47.5049L122.069 57.6995C120.23 59.57 117.218 59.5888 115.355 57.7419C113.492 55.895 113.473 52.8701 115.313 50.9996L132.843 33.1753C134.682 31.3048 137.694 31.286 139.557 33.1329C141.42 34.9798 141.439 38.0043 139.599 39.8746L136.192 43.339C135.539 44.0027 135.546 45.0717 136.207 45.7272C136.868 46.3824 137.933 46.3759 138.586 45.7122L141.454 42.7958L149.721 50.9936C150.197 51.4647 150.905 51.6091 151.526 51.3606C158.021 48.7621 165.307 48.3929 172.042 50.3222C172.654 50.4977 173.284 50.309 173.701 49.8841C173.893 49.6889 174.04 49.4438 174.121 49.1616C174.376 48.2647 173.858 47.3302 172.965 47.0745C165.875 45.0435 158.232 45.3165 151.317 47.8283L143.513 40.0901C144.99 37.0361 144.457 33.2444 141.921 30.7295C138.738 27.5739 133.592 27.6064 130.449 30.8018L112.919 48.6264C109.776 51.8221 109.809 56.989 112.991 60.1447C115.527 62.6599 119.31 63.1474 122.333 61.6253L130.136 69.3631C125.686 82.186 128.958 96.4807 138.624 106.065C152.401 119.726 174.678 119.586 188.284 105.752C201.889 91.9184 201.749 69.5498 187.972 55.8887C185.332 53.2711 182.327 51.1047 179.041 49.4501Z" fill="black"/>
<path d="M177.168 58.9919C176.5 58.5675 175.627 58.6682 175.073 59.2324C175.07 59.2352 175.067 59.2379 175.065 59.2405C166.935 67.6179 164.329 73.7851 161.997 79.6866C156.15 82.1019 150.04 84.7961 141.799 93.0645C141.236 93.6185 141.144 94.5109 141.578 95.1796C142.586 96.7362 143.765 98.1881 145.084 99.4954C148.775 103.155 153.416 105.594 158.507 106.547C159.078 106.653 159.634 106.458 160.013 106.072C160.241 105.84 160.405 105.54 160.469 105.196C160.639 104.279 160.037 103.397 159.123 103.226C154.696 102.397 150.658 100.276 147.447 97.0923C146.625 96.2773 145.865 95.3975 145.178 94.4663C152.728 87.1558 158.179 84.9094 163.941 82.5364C169.619 80.1975 175.479 77.7828 183.242 70.4056C185.273 74.2811 186.157 78.7282 185.741 83.1365C185.253 88.3114 182.983 93.1961 179.349 96.8911C175.564 100.74 170.518 103.101 165.141 103.54C164.215 103.616 163.525 104.431 163.601 105.36C163.676 106.29 164.487 106.982 165.413 106.907C171.592 106.402 177.392 103.689 181.742 99.265C185.92 95.0175 188.53 89.4028 189.09 83.4555C189.643 77.5939 188.197 71.6686 185.018 66.7725C184.015 65.2222 182.835 63.7708 181.511 62.4579C180.192 61.1501 178.731 59.9842 177.168 58.9919ZM181.415 67.4856C175.507 73.2072 170.882 75.8282 166.387 77.8341C168.328 73.2983 170.878 68.622 176.503 62.6155C177.439 63.2936 178.325 64.0458 179.147 64.8608C179.971 65.6784 180.73 66.5578 181.415 67.4856Z" fill="black"/>
<path d="M157.78 90.1689C155.361 92.6281 155.386 96.6046 157.835 99.0332C160.285 101.462 164.245 101.437 166.664 98.9775C169.082 96.5183 169.057 92.5416 166.608 90.1132C164.159 87.6846 160.199 87.7099 157.78 90.1689ZM164.27 96.6043C163.155 97.7384 161.328 97.7495 160.199 96.6299C159.07 95.5098 159.058 93.6764 160.174 92.5423C161.289 91.4082 163.115 91.3964 164.244 92.5165C165.374 93.6364 165.385 95.4703 164.27 96.6043Z" fill="black"/>
<path d="M172.058 81.6354C170.071 83.6553 170.092 86.9216 172.104 88.9163C174.115 90.9109 177.368 90.8904 179.355 88.8705C181.341 86.8508 181.32 83.5847 179.309 81.5899C177.297 79.5952 174.044 79.6157 172.058 81.6354ZM176.961 86.4973C176.278 87.192 175.159 87.199 174.467 86.5129C173.775 85.8271 173.768 84.7034 174.451 84.0089C175.135 83.3141 176.253 83.3071 176.945 83.9932C177.637 84.6793 177.644 85.8025 176.961 86.4973Z" fill="black"/>
<path d="M181.525 47.6227C180.609 47.1612 179.495 47.5331 179.035 48.4526C178.575 49.3722 178.945 50.4919 179.862 50.9529C183.138 52.6029 186.134 54.7638 188.769 57.376C202.511 71.002 202.65 93.3132 189.08 107.111C175.51 120.909 153.289 121.049 139.548 107.424C129.644 97.6034 126.47 82.8246 131.462 69.7722C131.726 69.0813 131.558 68.2989 131.033 67.7788L121.914 58.7361L132.379 48.095C133.1 47.3627 133.092 46.1835 132.363 45.4606C131.634 44.7376 130.459 44.7449 129.739 45.477L118.68 56.7225C116.65 58.7858 113.328 58.8065 111.273 56.7692C109.218 54.732 109.197 51.3953 111.227 49.332L130.564 29.6701C132.593 27.6068 135.916 27.5859 137.97 29.6234C140.025 31.6607 140.046 34.9968 138.017 37.0602L134.259 40.8814C133.539 41.6138 133.546 42.7931 134.275 43.5159C135.004 44.2388 136.179 44.2316 136.899 43.4995L140.063 40.2826L149.182 49.3252C149.706 49.8451 150.488 50.0043 151.173 49.7303C158.338 46.8638 166.375 46.4566 173.804 48.5847C174.479 48.7782 175.174 48.57 175.634 48.1015C175.846 47.8863 176.008 47.616 176.097 47.3046C176.378 46.3151 175.807 45.2844 174.822 45.0022C167.001 42.7618 158.57 43.063 150.942 45.8336L142.333 37.2975C143.964 33.929 143.375 29.7465 140.578 26.9723C137.067 23.4913 131.39 23.5272 127.924 27.0521L108.586 46.7142C105.119 50.2393 105.155 55.939 108.666 59.4198C111.463 62.1943 115.636 62.7321 118.97 61.0532L127.578 69.5884C122.669 83.7334 126.278 99.5019 136.941 110.074C152.138 125.144 176.712 124.989 191.72 109.729C206.728 94.4689 206.574 69.7944 191.376 54.725C188.464 51.8375 185.15 49.4479 181.525 47.6227Z" fill="#545CA6" fill-opacity="0.14"/>
<path d="M179.459 58.1482C178.721 57.6802 177.759 57.7913 177.147 58.4135C177.144 58.4166 177.141 58.4195 177.138 58.4227C168.171 67.6634 165.296 74.4666 162.724 80.9763C156.273 83.6409 149.534 86.6124 140.443 95.7334C139.822 96.3446 139.721 97.3287 140.199 98.0666C141.311 99.7834 142.612 101.385 144.066 102.827C148.138 106.864 153.258 109.554 158.874 110.605C159.503 110.723 160.117 110.507 160.535 110.082C160.787 109.826 160.967 109.495 161.038 109.115C161.225 108.104 160.561 107.131 159.554 106.943C154.67 106.028 150.216 103.689 146.674 100.176C145.767 99.2773 144.929 98.3069 144.171 97.2798C152.499 89.2155 158.512 86.7375 164.868 84.1199C171.131 81.5397 177.595 78.8764 186.159 70.7386C188.398 75.0136 189.374 79.9191 188.915 84.7819C188.377 90.4903 185.873 95.8785 181.864 99.9545C177.689 104.2 172.122 106.804 166.191 107.288C165.17 107.372 164.409 108.271 164.492 109.296C164.575 110.322 165.471 111.086 166.492 111.003C173.308 110.446 179.705 107.453 184.504 102.573C189.113 97.8878 191.991 91.6943 192.61 85.1338C193.22 78.6679 191.624 72.132 188.118 66.7308C187.011 65.0208 185.709 63.4197 184.249 61.9716C182.794 60.5289 181.182 59.2427 179.459 58.1482ZM184.143 67.5176C177.627 73.829 172.524 76.7203 167.566 78.933C169.707 73.9295 172.519 68.7712 178.725 62.1454C179.757 62.8936 180.734 63.7231 181.641 64.6222C182.55 65.524 183.387 66.4942 184.143 67.5176Z" fill="#545CA6" fill-opacity="0.14"/>
<path d="M158.072 92.5391C155.404 95.2519 155.431 99.6383 158.133 102.317C160.835 104.996 165.203 104.969 167.871 102.256C170.539 99.5433 170.512 95.1567 167.81 92.4777C165.108 89.7987 160.74 89.8266 158.072 92.5391ZM165.231 99.638C164.001 100.889 161.986 100.901 160.74 99.6662C159.494 98.4307 159.482 96.4081 160.712 95.1572C161.942 93.9062 163.957 93.8935 165.203 95.1287C166.449 96.3643 166.461 98.3871 165.231 99.638Z" fill="#545CA6" fill-opacity="0.14"/>
<path d="M173.822 83.1261C171.631 85.3542 171.653 88.9572 173.872 91.1573C176.091 93.3578 179.679 93.3351 181.871 91.107C184.062 88.8791 184.039 85.2761 181.82 83.0757C179.601 80.8755 176.013 80.8982 173.822 83.1261ZM179.23 88.4892C178.477 89.2555 177.242 89.2632 176.479 88.5065C175.716 87.7496 175.708 86.5102 176.462 85.7439C177.216 84.9775 178.45 84.9701 179.213 85.7268C179.976 86.4835 179.984 87.7228 179.23 88.4892Z" fill="#545CA6" fill-opacity="0.14"/>
</svg>
